<?xml version="1.0" standalone="no"?>
<!DOCTYPE svg PUBLIC "-//W3C//DTD SVG 20010904//EN"
 "http://www.w3.org/TR/2001/REC-SVG-20010904/DTD/svg10.dtd">
<svg version="1.0" xmlns="http://www.w3.org/2000/svg"
 width="455.000000pt" height="548.000000pt" viewBox="0 0 455.000000 548.000000"
 preserveAspectRatio="xMidYMid meet">

<g transform="translate(0.000000,548.000000) scale(0.100000,-0.100000)"
fill="#000000" stroke="none">
<path d="M1765 5351 c-47 -12 -87 -36 -122 -73 -42 -43 -98 -166 -115 -253 -9
-41 -18 -64 -22 -56 -6 9 -11 9 -23 0 -25 -21 -40 -61 -54 -140 -10 -62 -10
-82 0 -108 20 -46 39 -39 47 17 3 26 13 60 21 75 8 16 12 34 10 41 -3 6 3 13
13 13 27 2 34 -68 15 -143 -11 -44 -14 -89 -10 -165 4 -97 6 -104 25 -101 11
2 20 0 20 -4 0 -18 -24 -84 -31 -84 -4 0 -5 -17 -3 -37 l6 -38 -32 53 c-17 29
-35 50 -40 47 -5 -3 -10 7 -12 22 -4 26 -4 25 -15 -12 -7 -22 -19 -100 -29
-172 -17 -141 -13 -223 11 -223 11 0 13 10 8 45 -4 29 -2 45 5 45 17 0 100
-116 139 -195 l37 -74 53 59 c78 85 152 125 166 88 7 -21 42 5 42 31 0 12 6
25 12 29 18 12 33 60 34 112 2 56 3 58 47 89 17 12 32 27 32 32 0 16 55 92
101 140 49 51 110 173 115 227 1 20 14 66 29 101 33 79 49 177 40 248 -15 120
-131 275 -251 334 -50 25 -76 31 -150 34 -49 2 -102 1 -119 -4z m-147 -382 c2
-37 -3 -72 -16 -104 -18 -45 -42 -72 -42 -46 0 6 5 11 10 11 6 0 3 14 -6 31
-26 51 -1 174 34 167 13 -2 18 -15 20 -59z m171 -255 c15 -11 19 -20 12 -27
-12 -12 -65 19 -56 33 9 14 17 12 44 -6z m159 -90 c12 -4 22 -13 22 -20 0 -17
-1 -17 -34 -4 -14 5 -26 14 -26 20 0 11 6 12 38 4z"/>
<path d="M1990 4179 c0 -16 5 -51 12 -76 l11 -46 18 24 c24 31 23 40 -2 89
-25 48 -39 51 -39 9z"/>
<path d="M2042 4058 c-5 -18 -10 -46 -11 -63 -1 -16 -6 -34 -11 -39 -6 -6 -10
-19 -10 -29 0 -17 4 -16 34 10 42 35 57 64 44 86 -7 13 -5 17 7 17 8 0 15 7
15 16 0 9 -6 14 -12 11 -7 -2 -20 2 -30 10 -14 13 -17 11 -26 -19z"/>
<path d="M1905 3980 c-13 -21 -14 -50 -1 -50 7 0 30 8 51 19 37 18 37 19 17
30 -26 14 -59 14 -67 1z"/>
<path d="M2375 3930 c-4 -11 -21 -39 -39 -63 -50 -65 -54 -88 -7 -42 39 37 41
38 41 15 0 -30 -39 -116 -80 -176 -16 -24 -27 -44 -25 -44 2 0 20 10 40 21 40
24 52 21 36 -9 -6 -11 -8 -28 -5 -37 4 -9 -5 -32 -21 -55 -20 -29 -25 -46 -21
-67 4 -19 -11 -80 -49 -197 -30 -93 -53 -171 -51 -173 2 -3 14 0 25 7 18 9 21
8 21 -9 0 -11 -4 -23 -10 -26 -5 -3 -10 -15 -10 -26 0 -11 -7 -22 -15 -25 -14
-6 -22 -34 -9 -34 9 0 48 23 62 36 18 19 42 79 42 108 0 28 21 109 44 174 8
23 13 42 11 42 -2 0 2 17 9 38 7 20 16 66 20 102 3 36 11 112 16 170 11 107 4
290 -11 290 -4 0 -11 -9 -14 -20z"/>
<path d="M1760 3896 c0 -9 7 -12 20 -9 11 3 20 9 20 14 0 5 -9 9 -20 9 -11 0
-20 -6 -20 -14z"/>
<path d="M2260 3769 c0 -5 5 -7 10 -4 6 3 10 8 10 11 0 2 -4 4 -10 4 -5 0 -10
-5 -10 -11z"/>
<path d="M2214 3649 c-29 -57 -28 -72 3 -31 19 26 39 82 28 82 -2 0 -16 -23
-31 -51z"/>
<path d="M2239 3583 c-13 -15 -12 -15 6 -6 11 6 27 13 35 16 10 4 8 6 -6 6
-12 1 -28 -6 -35 -16z"/>
<path d="M2180 3560 c0 -6 -9 -30 -19 -53 -22 -49 -46 -159 -38 -179 3 -7 6 1
6 19 1 17 16 60 35 96 37 70 48 118 29 124 -7 3 -13 0 -13 -7z"/>
<path d="M1853 3400 c6 -24 -17 -76 -38 -84 -31 -11 -34 -49 -7 -83 28 -37 60
-43 85 -15 23 25 21 58 -5 84 -17 17 -21 31 -19 70 2 32 -2 48 -9 48 -7 0 -10
-8 -7 -20z m-29 -159 c-9 -10 -26 18 -18 30 5 9 9 8 14 -7 4 -10 6 -21 4 -23z
m36 5 c0 -8 -4 -18 -10 -21 -5 -3 -10 3 -10 14 0 12 5 21 10 21 6 0 10 -6 10
-14z"/>
<path d="M2051 3129 c-6 -18 -11 -37 -10 -43 0 -6 7 7 15 28 8 22 12 41 10 43
-2 2 -9 -10 -15 -28z"/>
<path d="M2301 2959 c-20 -16 -33 -19 -65 -14 l-41 6 27 -25 c15 -13 24 -26
19 -28 -5 -2 -12 -22 -15 -44 -6 -36 -4 -45 18 -70 16 -17 24 -22 20 -11 -3 9
-1 24 6 32 6 8 9 23 5 36 -4 12 -3 19 2 16 13 -8 40 40 48 86 8 43 8 43 -24
16z"/>
<path d="M1990 2940 c-9 -6 -10 -10 -3 -10 6 0 15 5 18 10 8 12 4 12 -15 0z"/>
<path d="M1903 2796 c-18 -29 -56 -75 -86 -102 -52 -47 -69 -73 -71 -104 -1
-20 -68 -50 -127 -57 -28 -3 -46 -10 -42 -15 3 -6 -2 -8 -13 -4 -33 10 -279
55 -282 51 -5 -5 114 -39 211 -60 42 -10 77 -20 77 -22 0 -3 -33 -3 -72 0
l-73 6 103 -28 c57 -16 106 -31 109 -34 9 -10 -26 -51 -95 -109 l-67 -58 -116
0 c-151 0 -176 5 -184 38 -3 14 -39 58 -78 99 -40 40 -88 93 -107 118 -59 77
-69 85 -100 85 -44 0 -90 -23 -129 -64 -38 -40 -36 -44 11 -20 20 11 34 12 40
6 7 -7 16 -7 29 1 23 14 36 2 19 -18 -11 -13 -11 -18 0 -28 10 -9 13 -9 17 1
6 14 33 16 33 2 0 -6 12 -15 26 -20 32 -13 26 -35 -10 -35 -17 -1 -32 -8 -38
-20 -16 -30 -17 -30 -31 -12 -9 12 -22 15 -54 10 -39 -5 -44 -9 -54 -42 -6
-20 -31 -58 -55 -86 -49 -56 -60 -48 -14 10 16 21 30 48 30 61 0 28 -18 32
-27 7 -8 -24 -106 -153 -115 -153 -14 0 -9 11 28 61 44 61 40 85 -7 38 -19
-19 -58 -54 -87 -79 l-52 -45 11 -85 c6 -47 15 -93 20 -103 5 -9 7 -28 3 -42
-8 -31 8 -33 21 -2 12 26 38 29 43 5 2 -11 -6 -22 -22 -29 -33 -15 -33 -37 -1
-45 33 -8 32 -19 -6 -53 l-31 -28 26 -5 c22 -4 26 -2 26 19 0 24 0 24 25 6 29
-21 33 -69 11 -148 -15 -56 -22 -47 -29 33 -2 29 -6 55 -9 58 -6 6 -74 -30
-100 -53 -10 -9 -15 -19 -13 -24 3 -4 0 -11 -6 -14 -5 -4 -8 -13 -5 -21 3 -8
1 -14 -4 -14 -5 0 -15 -20 -21 -45 -8 -33 -16 -45 -30 -45 -10 0 -35 -23 -58
-57 -35 -48 -41 -64 -41 -107 0 -28 5 -67 10 -86 15 -52 30 -146 36 -225 3
-38 10 -81 15 -95 5 -14 10 -39 12 -55 2 -17 7 -36 10 -42 4 -7 1 -40 -7 -74
-13 -59 -13 -63 6 -83 15 -16 18 -29 14 -59 -4 -21 -2 -46 4 -57 7 -13 7 -21
0 -25 -6 -3 -7 -18 -4 -33 3 -15 5 -40 5 -56 l-2 -29 93 6 c51 3 103 9 116 13
l22 6 0 -241 0 -241 1804 0 c1709 0 1804 1 1811 18 4 9 11 98 14 197 7 166 10
185 35 244 15 35 25 66 22 69 -3 3 -6 0 -6 -6 0 -7 -9 -12 -21 -12 -15 0 -19
-5 -15 -15 3 -9 0 -15 -8 -15 -8 0 -17 7 -20 17 -6 14 -8 14 -21 -3 -9 -12
-14 -14 -15 -6 0 7 -4 11 -9 8 -14 -9 -31 19 -29 45 2 16 -2 24 -12 24 -8 1
-28 9 -44 20 -32 22 -61 11 -60 -23 0 -19 -1 -19 -60 3 -145 55 -150 59 -120
89 14 15 13 17 -8 25 -20 7 -24 5 -31 -21 -4 -16 -12 -26 -17 -23 -13 8 -13
45 1 45 5 0 7 4 4 10 -8 13 -45 13 -45 0 0 -5 -4 -10 -10 -10 -5 0 -10 9 -10
19 0 28 -18 36 -39 17 -23 -21 -51 -11 -44 15 7 26 -11 24 -29 -3 -20 -30 -55
-19 -36 12 11 16 10 22 -4 36 -14 14 -20 15 -32 4 -9 -7 -16 -19 -16 -26 0
-16 -16 -19 -25 -5 -3 5 2 16 11 25 17 17 11 36 -12 36 -8 0 -14 -9 -14 -19 0
-27 -13 -33 -49 -20 -32 11 -39 27 -20 46 6 6 8 16 5 22 -10 16 -39 14 -33 -2
6 -16 -9 -44 -18 -35 -3 3 -7 18 -9 32 -4 38 -14 42 -27 12 -13 -27 -36 -37
-25 -11 3 8 9 22 12 30 9 22 -14 18 -26 -5 -6 -11 -18 -20 -28 -20 -11 0 -13
3 -6 8 6 4 14 17 18 28 5 16 2 23 -14 27 -20 5 -46 -23 -33 -37 3 -3 -1 -6 -9
-6 -12 0 -16 9 -14 32 1 41 -30 53 -39 15 l-7 -25 -56 23 c-31 12 -144 57
-250 100 -106 43 -195 75 -199 72 -3 -3 -13 -35 -23 -70 -13 -48 -15 -68 -7
-76 15 -15 -7 -15 -34 -1 -16 9 -21 7 -29 -15 -5 -14 -14 -25 -20 -25 -27 0
-18 40 36 145 34 66 61 109 64 101 3 -10 12 0 25 27 10 23 20 43 21 45 1 3
328 -128 634 -253 102 -42 222 -90 268 -107 46 -17 87 -39 93 -49 5 -11 17
-19 27 -19 9 0 32 -9 51 -21 18 -11 52 -27 75 -35 58 -22 160 -64 315 -128 74
-31 135 -55 136 -54 1 2 8 26 15 53 7 28 31 85 52 127 22 43 44 92 48 110 27
105 44 155 60 178 35 50 59 108 66 159 6 46 5 51 -12 51 -22 0 -175 57 -188
70 -5 5 -2 26 8 50 21 53 21 57 -10 64 -15 4 -25 9 -22 11 4 4 135 -33 206
-59 l42 -15 0 41 c0 24 -7 49 -16 59 -10 12 -18 45 -21 98 -5 75 -7 80 -31 86
-20 5 -23 8 -12 15 9 5 20 4 29 -3 16 -13 15 0 -13 198 -20 147 -31 193 -51
214 -9 10 -66 38 -128 61 -156 60 -380 150 -392 160 -11 8 -116 47 -220 81
-38 12 -83 31 -100 41 -50 30 -93 48 -117 48 -13 0 -55 7 -94 16 -81 19 -99
16 -116 -21 -9 -21 -9 -28 1 -34 7 -5 12 -11 11 -15 -3 -17 37 -67 62 -75 22
-8 27 -15 25 -33 -3 -18 -14 -25 -47 -34 -26 -6 -39 -13 -32 -18 17 -10 15
-29 -3 -22 -9 3 -15 0 -15 -8 0 -15 21 -26 51 -26 10 0 19 -5 19 -11 0 -6 7
-18 16 -26 14 -15 13 -18 -13 -39 -24 -20 -26 -23 -11 -29 10 -4 31 -3 46 3
32 11 62 0 62 -23 0 -16 12 -19 81 -15 35 1 48 -2 53 -15 4 -11 12 -14 25 -10
10 3 29 1 42 -4 24 -10 24 -10 2 -10 -29 -1 -30 -27 -3 -41 14 -8 26 -8 41 0
30 16 44 7 44 -27 l0 -31 -125 45 c-345 123 -326 118 -357 104 -15 -7 -30 -12
-32 -11 -12 5 -21 -32 -11 -49 15 -29 13 -31 -21 -19 -23 8 -37 7 -54 -2 -25
-14 -68 -5 -62 13 2 7 14 11 26 10 13 -2 21 3 21 12 0 8 -4 15 -10 15 -5 0
-10 7 -10 15 0 9 -11 20 -25 25 -14 5 -25 14 -25 20 0 6 17 3 40 -6 45 -18 47
-18 52 10 2 15 -5 22 -29 29 -18 6 -33 17 -33 25 0 10 6 12 20 8 11 -3 29 -9
40 -12 15 -5 20 -2 20 13 0 10 6 25 13 32 9 10 9 15 0 18 -8 3 -5 11 8 24 20
20 26 49 10 49 -12 0 -10 43 2 51 5 4 -4 10 -20 13 -15 4 -35 15 -44 24 -66
68 -88 61 -59 -17 12 -29 18 -61 15 -71 -8 -24 -34 -33 -53 -18 -13 11 -15 10
-9 -5 4 -11 10 -30 13 -43 5 -20 9 -22 20 -13 20 17 17 3 -12 -55 -14 -28 -35
-73 -45 -101 -11 -27 -41 -96 -66 -152 -40 -87 -51 -103 -70 -103 -18 0 -23 6
-23 25 0 22 -4 25 -39 25 -21 0 -58 -7 -81 -15 -78 -28 -79 -18 -5 55 31 30
62 67 70 82 8 14 51 64 95 110 138 143 128 158 -106 158 l-162 0 -6 24 c-6 26
2 86 13 86 3 0 29 -9 57 -20 l52 -19 -8 35 c-7 31 -6 34 10 29 26 -8 33 10 12
33 -53 61 -332 98 -436 58 -58 -22 -76 -11 -77 48 0 22 -3 35 -6 29 -3 -9 -17
-3 -43 18 -52 42 -99 43 -140 4 -16 -16 -30 -34 -30 -41 0 -7 -13 -19 -30 -28
-25 -12 -30 -12 -30 -1 0 8 -12 40 -26 72 -29 65 -33 119 -11 178 24 67 40
125 36 130 -3 2 -19 -20 -36 -49z m574 -372 c8 -22 -9 -48 -33 -52 -26 -3 -69
20 -69 38 0 27 92 40 102 14z m893 -24 c0 -5 -4 -10 -9 -10 -6 0 -13 5 -16 10
-3 6 1 10 9 10 9 0 16 -4 16 -10z m-734 -11 c28 -10 28 -10 7 -22 -12 -7 -43
-24 -69 -39 -25 -16 -52 -28 -58 -28 -14 0 -36 20 -36 32 0 8 71 48 105 59 11
4 21 7 22 8 1 1 14 -4 29 -10z m-1796 -99 c-6 -12 -14 -20 -17 -17 -2 3 1 14
8 26 17 26 24 19 9 -9z m2740 -70 c0 -10 -38 -1 -45 10 -2 4 7 5 20 2 14 -2
25 -8 25 -12z m105 -8 c-3 -3 -11 0 -18 7 -9 10 -8 11 6 5 10 -3 15 -9 12 -12z
m-545 -8 c0 -2 -7 -4 -15 -4 -8 0 -15 4 -15 10 0 5 7 7 15 4 8 -4 15 -8 15
-10z m745 6 c3 -5 1 -10 -4 -10 -6 0 -11 5 -11 10 0 6 2 10 4 10 3 0 8 -4 11
-10z m35 -10 c0 -5 -5 -10 -11 -10 -5 0 -7 5 -4 10 3 6 8 10 11 10 2 0 4 -4 4
-10z m-395 -30 c3 -5 2 -10 -4 -10 -5 0 -13 5 -16 10 -3 6 -2 10 4 10 5 0 13
-4 16 -10z m125 0 c0 -5 -5 -10 -11 -10 -5 0 -7 5 -4 10 3 6 8 10 11 10 2 0 4
-4 4 -10z m252 -11 c-12 -5 -30 -5 -40 -2 -15 6 -15 4 -4 -9 11 -14 10 -16 -7
-11 -12 3 -21 11 -21 18 0 15 33 23 69 16 25 -4 25 -4 3 -12z m-252 -33 c0 -3
-4 -8 -10 -11 -5 -3 -10 -1 -10 4 0 6 5 11 10 11 6 0 10 -2 10 -4z m200 0 c0
-3 -4 -8 -10 -11 -5 -3 -10 -1 -10 4 0 6 5 11 10 11 6 0 10 -2 10 -4z m54 -48
c-3 -4 -12 -5 -22 -2 -13 4 -12 2 3 -8 24 -16 30 -38 10 -38 -8 0 -12 6 -9 14
3 8 -3 17 -14 20 -16 6 -22 24 -13 43 1 0 12 -4 25 -10 13 -7 22 -15 20 -19z
m-259 -8 l20 -9 -20 0 c-11 0 -27 4 -35 9 -13 9 -13 10 0 9 8 0 24 -4 35 -9z
m457 -9 c-2 -9 3 -9 18 -1 13 7 20 7 20 0 0 -5 -6 -10 -12 -10 -8 0 -9 -3 -3
-8 16 -11 18 -44 4 -53 -7 -4 -21 -3 -32 2 -10 6 -26 8 -34 5 -13 -5 -14 -4
-3 9 10 12 9 16 -4 21 -14 5 -13 9 6 30 23 24 45 27 40 5z m-332 5 c0 -3 -4
-8 -10 -11 -5 -3 -10 -1 -10 4 0 6 5 11 10 11 6 0 10 -2 10 -4z m-163 -12 c-3
-3 -12 -4 -19 -1 -8 3 -5 6 6 6 11 1 17 -2 13 -5z m253 -4 c11 -8 7 -9 -15 -5
l-30 6 35 -20 c43 -25 34 -27 -15 -4 -24 12 -31 19 -23 25 17 10 30 10 48 -2z
m-25 -42 c21 -18 -22 -6 -45 12 l-25 21 30 -13 c17 -6 34 -15 40 -20z m40 -26
c-3 -3 -11 0 -18 7 -9 10 -8 11 6 5 10 -3 15 -9 12 -12z m-840 -2 c13 -6 15
-9 5 -9 -8 0 -22 4 -30 9 -18 12 -2 12 25 0z m805 0 c13 -8 12 -10 -4 -10 -20
0 -20 0 0 -16 17 -14 17 -15 1 -10 -10 3 -21 6 -23 6 -2 0 -4 9 -4 20 0 22 7
25 30 10z m286 -16 c8 3 14 0 14 -6 0 -7 -14 -9 -39 -5 -36 4 -39 3 -35 -17 2
-11 11 -27 21 -33 26 -20 2 -14 -37 8 -26 14 -28 18 -10 13 22 -6 23 -5 12 8
-18 22 -55 31 -48 12 6 -16 -10 -19 -20 -3 -11 19 13 34 38 22 18 -8 26 -7 36
3 10 11 18 12 33 3 11 -6 27 -8 35 -5z m69 -2 c-3 -3 -11 0 -18 7 -9 10 -8 11
6 5 10 -3 15 -9 12 -12z m-317 -52 c6 0 12 -4 12 -10 0 -13 2 -14 -68 20 -34
17 -67 30 -72 30 -6 0 -10 4 -10 10 0 5 28 -4 63 -20 34 -17 68 -30 75 -30z
m-781 3 c-7 -7 -57 8 -57 18 0 4 14 3 31 -3 16 -6 28 -12 26 -15z m1008 17 c3
-6 -1 -7 -9 -4 -18 7 -21 14 -7 14 6 0 13 -4 16 -10z m-1110 -10 c3 -5 -1 -10
-9 -10 -9 0 -16 5 -16 10 0 6 4 10 9 10 6 0 13 -4 16 -10z m-2388 -22 c-3 -8
-6 -5 -6 6 -1 11 2 17 5 13 3 -3 4 -12 1 -19z m3528 -18 c3 -5 2 -10 -4 -10
-5 0 -13 5 -16 10 -3 6 -2 10 4 10 5 0 13 -4 16 -10z m-922 -26 c9 -3 17 -10
17 -15 0 -12 3 -12 -55 11 -43 18 -45 20 -15 14 19 -3 43 -8 53 -10z m256 -95
c87 -32 109 -44 99 -54 -6 -6 -187 62 -202 76 -19 17 18 9 103 -22z m105 -78
c3 -4 19 -11 36 -14 28 -6 43 -27 19 -27 -5 0 -15 -13 -20 -30 -6 -16 -15 -30
-21 -30 -6 0 -7 7 -4 16 19 51 18 62 -8 62 -20 0 -24 -4 -17 -17 5 -9 6 -22 4
-28 -6 -18 -43 -16 -43 2 0 9 6 12 15 9 13 -5 14 -2 6 19 -12 32 17 65 33 38z
m102 -85 l-5 -41 16 38 c17 41 21 43 46 25 16 -12 16 -15 0 -50 -19 -41 -38
-52 -28 -15 6 20 5 21 -8 4 -15 -18 -47 -14 -47 5 0 6 -7 8 -15 4 -21 -8 -19
13 5 52 26 42 43 32 36 -22z m206 7 c59 -20 109 -42 112 -50 9 -21 -15 -16
-145 36 -164 64 -160 62 -114 55 22 -3 88 -22 147 -41z m-82 -14 c0 -5 -4 -9
-9 -9 -5 0 -15 -16 -21 -35 -6 -19 -16 -33 -21 -29 -5 3 -5 13 1 24 5 10 10
30 10 43 0 20 4 24 20 20 11 -3 20 -9 20 -14z m620 -4 c10 -12 10 -15 -3 -15
-8 0 -17 7 -21 15 -3 8 -2 15 3 15 5 0 14 -7 21 -15z m-576 -33 c-5 -14 -3
-13 11 3 15 19 16 19 22 -3 4 -16 8 -20 13 -11 6 9 15 10 39 1 17 -7 45 -17
61 -23 17 -6 30 -18 30 -26 0 -13 3 -13 15 -3 21 18 20 -11 -2 -53 -17 -30
-18 -31 -21 -9 -3 23 -4 23 -18 5 -14 -17 -15 -17 -11 7 2 14 8 33 12 43 5 11
3 17 -7 17 -7 0 -19 -13 -25 -30 -6 -16 -17 -30 -23 -30 -8 0 -9 6 -5 18 14
32 17 62 7 62 -5 0 -15 -13 -21 -30 -5 -16 -15 -30 -20 -30 -7 0 -7 8 -1 26
17 43 11 51 -11 17 -22 -35 -39 -43 -39 -19 0 9 -7 12 -20 9 -23 -6 -24 -2 -9
50 5 21 14 35 19 32 5 -3 7 -13 4 -23z m453 -28 c-3 -3 -12 -4 -19 -1 -8 3 -5
6 6 6 11 1 17 -2 13 -5z m-1334 -74 c82 -36 95 -45 80 -54 -16 -8 -13 -12 22
-27 43 -19 69 -14 40 8 -22 15 -12 17 15 3 11 -6 17 -16 14 -24 -3 -8 12 -21
45 -35 56 -24 61 -25 61 -12 0 5 -20 17 -45 27 -51 19 -55 28 -7 15 18 -5 32
-6 32 -2 0 4 6 16 14 26 13 18 17 17 105 -20 80 -33 90 -40 79 -54 -11 -14
-11 -14 4 -3 25 20 88 -9 88 -40 1 -22 1 -22 14 -5 13 17 17 17 43 3 15 -8 24
-15 20 -16 -5 0 -17 4 -27 10 -15 8 -17 6 -13 -10 3 -11 13 -21 22 -22 9 0 23
-2 31 -2 8 -1 18 2 21 6 9 14 69 -13 69 -30 0 -10 14 -25 30 -34 24 -14 30
-14 30 -3 0 7 -6 16 -12 18 -8 3 -6 6 4 6 10 1 20 -9 23 -21 3 -13 17 -28 30
-35 22 -10 25 -9 25 9 0 11 5 16 10 13 6 -4 8 -15 5 -26 -7 -21 5 -25 23 -7 9
9 12 8 12 -6 0 -24 69 -53 81 -34 7 11 11 10 19 -2 5 -8 11 -19 13 -25 2 -6
14 -5 31 3 19 9 33 9 47 2 23 -13 24 -23 4 -40 -13 -10 -39 -3 -150 44 -74 31
-139 56 -145 56 -5 0 -26 9 -47 20 -69 35 -325 140 -332 135 -14 -8 -35 -85
-25 -94 5 -5 83 -41 174 -81 216 -95 429 -198 448 -216 25 -25 5 -28 -43 -5
-25 12 -50 19 -55 16 -6 -4 -10 -1 -10 6 0 6 -8 9 -19 6 -11 -3 -22 1 -25 8
-5 15 -74 37 -88 29 -4 -3 -8 2 -8 10 0 25 -26 19 -38 -9 -9 -20 -9 -25 3 -25
7 0 16 -4 20 -10 3 -5 -7 -5 -25 1 -16 6 -30 17 -30 25 0 8 -5 14 -11 14 -5 0
-9 8 -8 18 3 30 -1 35 -16 22 -12 -10 -15 -10 -15 3 0 24 -19 31 -38 15 -25
-22 -68 -7 -45 15 3 4 12 2 20 -4 10 -9 13 -8 13 4 0 20 -29 30 -47 15 -8 -6
-12 -20 -9 -31 3 -13 0 -17 -11 -13 -8 3 -18 6 -23 6 -11 0 -1 71 11 85 15 15
10 25 -11 25 -11 0 -20 5 -20 10 0 6 -9 10 -20 10 -12 0 -32 7 -45 16 -13 9
-30 17 -37 18 -7 2 -26 8 -43 16 -16 7 -40 16 -52 21 -48 19 -79 32 -96 41
-25 12 -33 4 -41 -41 -6 -39 -7 -40 -36 -29 -34 11 -41 38 -10 38 10 0 25 10
31 22 15 28 3 37 -99 72 -42 15 -89 34 -104 42 -42 22 -53 17 -69 -30 l-14
-45 -48 21 c-37 16 -46 25 -41 37 4 9 16 52 28 96 11 44 25 86 29 92 9 14 5
16 170 -57z m-2373 10 c26 0 5 -41 -43 -82 -76 -65 -101 -76 -171 -69 l-59 6
62 53 c33 29 87 73 118 97 l58 43 13 -24 c7 -13 17 -24 22 -24z m3800 14 c0
-8 -5 -12 -10 -9 -6 4 -8 11 -5 16 9 14 15 11 15 -7z m-290 -10 c0 -13 3 -14
14 -5 17 14 31 -2 20 -21 -6 -10 -5 -10 7 -1 8 7 25 10 37 6 17 -4 21 -10 16
-27 -6 -21 -6 -21 9 -1 23 31 29 13 10 -33 -16 -42 -40 -59 -30 -22 6 25 -1
26 -19 3 -16 -22 -18 -5 -4 33 15 38 5 41 -16 5 -22 -37 -49 -43 -39 -8 6 18
5 20 -6 10 -27 -27 -37 -15 -26 32 10 44 27 62 27 29z m178 -67 c18 7 15 0
-19 -43 l-32 -39 6 40 c4 22 7 47 7 55 1 13 2 13 13 -1 7 -9 18 -14 25 -12z
m-761 -249 c-3 -8 -6 -5 -6 6 -1 11 2 17 5 13 3 -3 4 -12 1 -19z m-277 -38 c0
-5 -5 -10 -11 -10 -5 0 -7 5 -4 10 3 6 8 10 11 10 2 0 4 -4 4 -10z m911 -137
c-8 -15 -10 -15 -11 -2 0 17 10 32 18 25 2 -3 -1 -13 -7 -23z m-549 -21 c16
-16 -2 -14 -32 3 -24 14 -24 15 -2 12 12 -2 28 -9 34 -15z m618 9 c0 -14 -18
-23 -31 -15 -8 4 -7 9 2 15 18 11 29 11 29 0z m-1515 -67 c20 -8 35 -17 32
-20 -6 -6 -77 22 -77 30 0 8 4 8 45 -10z m1110 -14 c-4 -12 -9 -19 -12 -17 -3
3 -2 15 2 27 4 12 9 19 12 17 3 -3 2 -15 -2 -27z m224 -44 c-3 -3 -11 5 -18
17 -13 21 -12 21 5 5 10 -10 16 -20 13 -22z m-1234 14 c3 -5 1 -10 -4 -10 -6
0 -11 5 -11 10 0 6 2 10 4 10 3 0 8 -4 11 -10z m-291 -26 c9 -22 -3 -32 -14
-14 -12 19 -12 30 -1 30 5 0 12 -7 15 -16z m1576 -4 c0 -5 -7 -7 -15 -4 -8 4
-15 8 -15 10 0 2 7 4 15 4 8 0 15 -4 15 -10z m-3060 -10 c0 -5 -4 -10 -10 -10
-5 0 -10 5 -10 10 0 6 5 10 10 10 6 0 10 -4 10 -10z m1670 0 c8 -5 12 -11 10
-14 -3 -2 -14 2 -24 10 -22 15 -10 19 14 4z m1177 -746 c-3 -3 -12 -4 -19 -1
-8 3 -5 6 6 6 11 1 17 -2 13 -5z"/>
<path d="M4080 2025 c35 -20 62 -19 36 0 -11 8 -29 15 -40 15 -19 -1 -19 -2 4
-15z"/>
<path d="M3020 1352 c0 -14 119 -62 126 -51 3 5 -19 20 -48 34 -55 26 -78 31
-78 17z"/>
<path d="M2990 1333 c0 -5 42 -25 93 -47 117 -49 125 -52 112 -39 -9 10 -189
93 -200 93 -3 0 -5 -3 -5 -7z"/>
<path d="M3340 1331 c0 -5 7 -11 15 -15 8 -3 15 -1 15 3 0 5 -7 11 -15 15 -8
3 -15 1 -15 -3z"/>
<path d="M3260 1296 c0 -9 5 -16 10 -16 6 0 10 4 10 9 0 6 -4 13 -10 16 -5 3
-10 -1 -10 -9z"/>
<path d="M3160 1292 c0 -10 142 -74 149 -67 9 9 -13 23 -78 49 -73 29 -71 29
-71 18z"/>
<path d="M3645 1201 c-3 -5 -1 -12 5 -16 5 -3 10 1 10 9 0 18 -6 21 -15 7z"/>
<path d="M2252 2721 c-8 -4 -10 -15 -6 -26 7 -17 8 -16 16 5 10 27 7 32 -10
21z"/>
<path d="M1070 2470 c8 -5 31 -9 50 -9 32 1 33 2 10 9 -14 4 -36 8 -50 9 -20
1 -22 -1 -10 -9z"/>
<path d="M743 2448 c-34 -45 -16 -52 32 -13 l30 25 -26 0 c-15 0 -31 -6 -36
-12z"/>
<path d="M1214 2451 c9 -14 75 -23 109 -15 l32 8 -45 7 c-64 11 -102 11 -96 0z"/>
<path d="M1538 2423 c7 -3 16 -2 19 1 4 3 -2 6 -13 5 -11 0 -14 -3 -6 -6z"/>
<path d="M155 1337 c-10 -8 -14 -16 -9 -20 5 -3 20 3 33 14 27 22 6 27 -24 6z"/>
<path d="M4380 1310 c0 -29 38 -46 58 -26 13 12 13 18 2 30 -19 24 -60 21 -60
-4z"/>
<path d="M4536 1243 c-6 -14 -5 -15 5 -6 7 7 10 15 7 18 -3 3 -9 -2 -12 -12z"/>
<path d="M2765 1070 c-7 -11 86 -58 124 -62 37 -5 36 19 -1 27 -18 4 -50 16
-70 26 -43 22 -45 22 -53 9z"/>
<path d="M2925 1001 c-6 -11 9 -23 19 -14 9 9 7 23 -3 23 -6 0 -12 -4 -16 -9z"/>
<path d="M2960 992 c0 -5 12 -14 28 -22 15 -7 43 -21 63 -31 44 -23 49 -23 49
-5 0 8 -29 25 -65 40 -72 29 -75 29 -75 18z"/>
</g>
</svg>
