<svg xmlns="http://www.w3.org/2000/svg" data-name="Layer 1" width="727.20961" height="478.35985" viewBox="0 0 727.20961 478.35985" xmlns:xlink="http://www.w3.org/1999/xlink"><path d="M604.9915,289.16817l5.61465-22.646L596.76534,263.109l-5.49466,22.03167c-3.61811-.90442-7.33788-1.70656-11.04182-2.5939l5.52966-22.1853-13.77165-3.41313L566.338,279.56032q-4.506-1.024-8.78946-2.065l-18.99383-4.74429-3.66894,14.71055s10.00021,2.28684,10.00021,2.49162c5.58049,1.39939,6.5871,5.11968,6.41711,8.00377l-6.43377,25.78612a10.03318,10.03318,0,0,1,1.43324.46081l-1.45074-.35842-9.01028,36.11091a4.99175,4.99175,0,0,1-6.28045,3.27656H529.527c.13666.20478-10.01688-2.49161-10.01688-2.49161l-6.82625,15.76871,17.9189,4.47119c3.41312.8362,6.60376,1.70656,9.81273,2.52568L534.715,406.39189,548.47,409.805l5.64882-22.646c3.65227.98973,7.32121,1.92842,10.97349,2.84993l-5.63215,22.54372,13.77165,3.41312,5.70048-22.85088c23.48189,4.437,41.16247,2.64514,48.58534-18.58449,5.99047-17.06561-.29-26.96365-12.66255-33.39742,8.99361-2.082,15.78569-7.98669,17.59475-20.22271l.15332-.06823C635.09465,304.13475,622.36376,295.15822,604.9915,289.16817Zm-3.85726,75.80554c-4.24891,17.06562-33.05547,7.85014-42.39073,5.54633l7.56037-30.32564c9.30026,2.338,39.25092,6.94572,34.79619,24.77931Zm4.2664-44.3706c-3.89059,15.56383-27.85078,7.64536-35.6328,5.71694l6.82624-27.49268c7.76536,1.92842,32.81715,5.54632,28.70407,21.77574Z" transform="translate(-236.3952 -210.82008)" fill="#00bfa6"/><path d="M575.58289,465.30274A127.24133,127.24133,0,1,1,702.82423,338.06141,127.38519,127.38519,0,0,1,575.58289,465.30274Zm0-251.06954A123.82821,123.82821,0,1,0,699.4111,338.06141,123.96842,123.96842,0,0,0,575.58289,214.2332ZM571.314,417.36653l-17.08561-4.23474,5.633-22.547c-2.55359-.64329-5.12135-1.30992-7.66911-1.99154l-5.64049,22.61277-17.06686-4.23474,5.70381-22.90025q-.9993-.26-2.004-.5233c-2.00279-.52414-4.0335-1.05577-6.15-1.57491l-19.87836-4.96053,8.2095-18.963,1.42033.37747c1.96529.52164,4.04058,1.06327,5.77089,1.50408l-.24-.36,4.53888,1.36158a3.312,3.312,0,0,0,4.196-2.15237l8.59572-34.46037-.00834-.0025,6.80625-27.27832c.13458-3.20147-1.54657-5.19635-5.13593-6.09546l-3.831-.96078.09458-.06083c-1.81114-.43914-4.08558-.97244-6.22878-1.46157l-1.697-.38748,4.50305-18.05639,20.65082,5.158q3.476.85245,7.12456,1.68406l5.65632-22.64194,17.08394,4.23391-5.52466,22.1678q1.458.34,2.91358.67246c1.61281.37081,3.21938.73912,4.8097,1.12243l5.49549-22.03364,17.15145,4.22974L603.8599,287.407c13.54709,4.8572,30.16815,13.58833,27.27,33.0213l-.13832.92744-.16416.0725c-1.6924,9.83939-6.68542,16.38982-14.87158,19.52629,11.95093,7.63953,15.22239,18.628,10.011,33.47544-8.23116,23.53939-29.15071,23.53522-48.92824,19.98877Zm-12.945-6.72459,10.45853,2.59151L574.505,390.474l1.58241.29914c27.015,5.10386,40.53375.04167,46.65837-17.47142,5.09594-14.51911,1.33367-24.47016-11.83968-31.32057l-4.1035-2.134,4.506-1.04243c9.41359-2.179,14.74243-8.33116,16.2915-18.80968l.13749-.92827.13916-.06167c1.52865-13.09919-6.72292-22.03447-26.60295-28.889l-1.47574-.5083,5.57882-22.50362-10.52852-2.59567-5.49674,22.037-1.65657-.41414c-2.10778-.52746-4.25015-1.0191-6.40377-1.51324-1.53782-.35331-3.08106-.70745-4.62138-1.0766l-1.67448-.40164L580.528,260.942l-10.46019-2.59234-5.64091,22.58028-1.62948-.37081c-3.01315-.68579-5.95755-1.36992-8.81654-2.07154l-17.34476-4.33307-2.83483,11.366a82.00156,82.00156,0,0,1,8.39365,2.1257c5.15218,1.31242,7.93909,4.86137,7.65,9.74607l-.04792.31248-6.04754,24.23851.02.00833-.40623,1.53907-.07958-.02-.03166.09833.09458.02416-9.0107,36.11111a6.72038,6.72038,0,0,1-8.45656,4.49889l.00458-.01583c-1.30492-.17582-3.72394-.80412-8.55322-2.08487l-5.443,12.57339,15.96652,3.98392c2.12736.52164,4.17557,1.05744,6.195,1.58657,1.21493.31748,2.41944.6333,3.62644.94161l1.64407.41914-5.69757,22.87443,10.44311,2.5915,5.65757-22.68193,1.68115.455c3.62311.98244,7.3033,1.93821,10.93766,2.84066l1.65864.41247Zm22.62194-34.52871c-8.25865,0-17.31393-2.37985-23.14107-3.91059-1.00869-.265-1.909-.50163-2.67692-.69162l-1.66031-.41,8.387-33.64459,1.65865.41747c.937.23582,2.087.49414,3.391.78829,9.49608,2.139,25.38927,5.71881,31.091,14.97241a13.60961,13.60961,0,0,1,1.947,8.96695h.13541l-.4933,2.119a13.42628,13.42628,0,0,1-6.31294,8.6428C589.912,375.38,585.57353,376.11323,580.99089,376.11323Zm-23.34273-7.492q.51184.13375,1.06911.28c7.96742,2.0957,24.54682,6.44877,32.85922,1.52574a9.82565,9.82565,0,0,0,4.47848-5.618l.22832-.91411a10.52708,10.52708,0,0,0-1.1491-8.47031c-4.94761-8.02951-20.55207-11.54429-28.9353-13.43251-.64163-.145-1.24742-.28165-1.80989-.41081Zm29.549-37.53768c-6.78292,0-14.0308-1.92905-18.718-3.17648-.862-.22915-1.63031-.43414-2.28319-.59579l-1.6574-.41081,7.64912-30.8056,1.65614.4108c.76787.19083,1.70782.39831,2.77275.6333,7.79077,1.71989,20.83,4.59972,25.77133,12.61172a12.82963,12.82963,0,0,1,1.80281,8.48031h.13207l-.42747,2.12071a12.85732,12.85732,0,0,1-6.01588,8.31032A21.029,21.029,0,0,1,587.19718,331.08351ZM568.67,324.42642q.33248.08749.687.18248c6.90541,1.83656,19.75836,5.258,26.78876,1.11327a9.08851,9.08851,0,0,0,3.94018-4.63805l.39706-1.56574a9.86816,9.86816,0,0,0-.99994-7.97534c-4.18349-6.78375-16.81563-9.57274-23.6023-11.071-.41872-.0925-.8187-.18083-1.19742-.26582Z" transform="translate(-236.3952 -210.82008)" fill="#3f3d56"/><path d="M641.07551,438.03223a10.06359,10.06359,0,0,1,16.14152-.35236l33.83386-11.49994-4.69034,17.96759-31.41013,8.16592a10.111,10.111,0,0,1-13.87491-14.28121Z" transform="translate(-236.3952 -210.82008)" fill="#ffb8b8"/><path d="M906.8265,687.74327a246.3025,246.3025,0,0,1,20.38471-77.7349q4.60066-10.27758,10.1275-20.10266c.94658-1.68531-1.64387-3.1994-2.59041-1.51416a249.70678,249.70678,0,0,0-27.786,76.65535q-2.08614,11.26864-3.13582,22.69637c-.17782,1.92159,2.8233,1.90947,3,0Z" transform="translate(-236.3952 -210.82008)" fill="#e6e6e6"/><circle cx="708.20961" cy="364.89696" r="19" fill="#e6e6e6"/><path d="M908.77008,688.2479a159.78768,159.78768,0,0,1,13.2245-50.43025q2.98467-6.66755,6.57018-13.04153a.97385.97385,0,0,0-1.68052-.98231,161.99628,161.99628,0,0,0-18.026,49.7299q-1.35338,7.31049-2.03435,14.72419c-.11537,1.24663,1.8316,1.23876,1.94624,0Z" transform="translate(-236.3952 -210.82008)" fill="#e6e6e6"/><circle cx="696.88342" cy="404.75119" r="12.32619" fill="#e6e6e6"/><path d="M906.31363,687.08433a159.78792,159.78792,0,0,1-20.59035-47.89713q-1.74758-7.093-2.84086-14.324a.97385.97385,0,0,0-1.92923.25909,161.9963,161.9963,0,0,0,16.37366,50.29816q3.42927,6.59658,7.45221,12.861c.67578,1.0539,2.20609-.1498,1.53457-1.197Z" transform="translate(-236.3952 -210.82008)" fill="#e6e6e6"/><circle cx="644.54248" cy="403.88592" r="12.32619" fill="#e6e6e6"/><path d="M807.70519,509.345a10.05577,10.05577,0,0,0-4.41761-14.773l2.59077-35.64081-16.20273,9.07222.02381,32.45424a10.11028,10.11028,0,0,0,18.00576,8.88731Z" transform="translate(-236.3952 -210.82008)" fill="#ffb8b8"/><path d="M803.67441,370.79887,808.1048,484.217l-18-1-4-119,3.796-1.78637A9.66544,9.66544,0,0,1,803.67441,370.79887Z" transform="translate(-236.3952 -210.82008)" fill="#00bfa6"/><polygon points="511.612 466.235 499.352 466.234 493.52 418.946 511.614 418.947 511.612 466.235" fill="#ffb8b8"/><path d="M490.59492,462.7314h23.64384a0,0,0,0,1,0,0v14.88687a0,0,0,0,1,0,0H475.708a0,0,0,0,1,0,0v0A14.88688,14.88688,0,0,1,490.59492,462.7314Z" fill="#2f2e41"/><polygon points="613.615 451.583 602.489 456.734 577.329 416.272 593.749 408.671 613.615 451.583" fill="#ffb8b8"/><path d="M832.18824,665.52589h23.64382a0,0,0,0,1,0,0v14.88687a0,0,0,0,1,0,0H817.30134a0,0,0,0,1,0,0v0A14.88689,14.88689,0,0,1,832.18824,665.52589Z" transform="translate(-441.70979 202.89081) rotate(-24.84116)" fill="#2f2e41"/><path d="M718.89695,522.728l12.64381,144.28893,17-2L761.1048,533.217l69.436,125.79985,18-5S790.6048,480.717,786.1048,466.217c-4.93306-15.89544-44-22-44-22l-1.5-1.5C723.81807,465.31456,717.09422,494.63543,718.89695,522.728Z" transform="translate(-236.3952 -210.82008)" fill="#2f2e41"/><circle cx="549.8588" cy="114.53159" r="24.56103" fill="#ffb8b8"/><path d="M801.67432,372.7425l-17.06982,88.97s-25.94043-5.18-35.18018-11.42c-3.66015-2.48-6.98-5.04-9.78027-7.36-.5498-.45-1.06982-.9-1.57959-1.33-4.62012-3.95-7.46-6.89-7.46-6.89s1.47949-7.25,3.28955-15.83c2.02-9.61,4.47022-20.9,5.72022-25.51,2.75-10.11,12.18994-21.89,19.5498-29.91a21.73771,21.73771,0,0,1,21.47022-6.36l13.31982,3.44A10.54333,10.54333,0,0,1,801.67432,372.7425Z" transform="translate(-236.3952 -210.82008)" fill="#00bfa6"/><path d="M760.39405,411.60249s-9.17969,19.08-22.32959,30c-4.62012-3.95-7.46-6.89-7.46-6.89s1.47949-7.25,3.28955-15.83C744.91407,413.06251,756.27442,409.39253,760.39405,411.60249Z" transform="translate(-236.3952 -210.82008)" opacity="0.2"/><path d="M776.67434,376.67731a16.32175,16.32175,0,0,0-2.83074-1.12454,12.49535,12.49535,0,0,0-11.54516,2.66016l-53.95753,39.523-42.91423,14.435,7.75377,18.34064,63.97572-15.62394,42.42971-37.70754A12.75365,12.75365,0,0,0,776.67434,376.67731Z" transform="translate(-236.3952 -210.82008)" fill="#00bfa6"/><path d="M787.70774,349.6866c3.49562-5.2323,6.25435-12.48756,2.40565-17.4659-3.79907-4.91417-11.29215-4.19018-17.11054-6.36467-8.104-3.02866-12.80409-12.5493-11.33824-21.07564s8.31031-15.59442,16.464-18.48644,17.34839-1.95148,25.33312,1.37886c9.82931,4.0997,18.26115,12.03028,21.79686,22.07626s1.6456,22.10807-5.68929,29.82962c-7.86381,8.27835-20.20556,10.48454-31.62276,10.35068" transform="translate(-236.3952 -210.82008)" fill="#2f2e41"/><path d="M826.27656,320.72688c1.00062,5.591,7.13392,8.76649,12.77076,9.46443s11.46786-.197,16.9553,1.269c9.67415,2.58443,16.05479,11.88813,19.56679,21.26546s5.06949,19.49827,9.63252,28.41158S898.6125,397.9087,908.59115,397.075a25.732,25.732,0,0,1-48.39435-1.5693c-3.66577-11.31688.54221-24.81289-5.86843-34.83353-3.54741-5.54505-9.673-8.80672-15.57943-11.71293s-12.10571-5.88925-16.0657-11.1476-4.75122-13.56286.12875-17.98074" transform="translate(-236.3952 -210.82008)" fill="#2f2e41"/><path d="M945.8799,688.96447h-320.294a1.19068,1.19068,0,1,1,0-2.38136h320.294a1.19068,1.19068,0,1,1,0,2.38136Z" transform="translate(-236.3952 -210.82008)" fill="#3f3d56"/><path d="M557.8799,688.96447h-320.294a1.19068,1.19068,0,1,1,0-2.38136h320.294a1.19068,1.19068,0,0,1,0,2.38136Z" transform="translate(-236.3952 -210.82008)" fill="#3f3d56"/><polygon points="205.801 465.134 217.522 461.537 209.226 414.618 191.928 419.927 205.801 465.134" fill="#a0616a"/><path d="M439.99337,667.39612h38.53072a0,0,0,0,1,0,0V682.283a0,0,0,0,1,0,0H454.88023a14.88686,14.88686,0,0,1-14.88686-14.88686v0A0,0,0,0,1,439.99337,667.39612Z" transform="translate(859.9015 974.42092) rotate(162.93912)" fill="#2f2e41"/><polygon points="101.803 465.403 114.063 465.403 119.895 418.115 101.801 418.116 101.803 465.403" fill="#a0616a"/><path d="M335.57139,672.7199h38.53073a0,0,0,0,1,0,0v14.88687a0,0,0,0,1,0,0H350.45824a14.88685,14.88685,0,0,1-14.88685-14.88685v0A0,0,0,0,1,335.57139,672.7199Z" transform="translate(473.30936 1149.49039) rotate(179.99738)" fill="#2f2e41"/><path d="M341.31879,519.14611a9.16224,9.16224,0,0,1,.318-14.04558l9.50536-119.69459,19.33087,4.8297L354.99543,506.99417a9.21188,9.21188,0,0,1-13.67664,12.15194Z" transform="translate(-236.3952 -210.82008)" fill="#a0616a"/><circle cx="150.63447" cy="104.60081" r="24.56103" fill="#a0616a"/><path d="M353.48307,387.78045c-5.83678-8.01293-6.01662-19.04911.27076-26.71357,4.10314-5.00181,10.96646-9.00437,22.42531-9.00437,30.54289,0,42.12813,24.22367,42.12813,24.22367s12.63843,23.17047,5.266,44.23454-7.37242,23.17047-7.37242,23.17047l-48.44735-4.21282S375.92659,418.59163,353.48307,387.78045Z" transform="translate(-236.3952 -210.82008)" fill="#ccc"/><path d="M338.54332,408.74829l10.4369-34.14579a16.32662,16.32662,0,0,1,23.09693-9.737h0a16.3562,16.3562,0,0,1,7.465,21.07435l-13.26866,30.21788Z" transform="translate(-236.3952 -210.82008)" fill="#ccc"/><path d="M415.14766,438.42517l41.07492,212.747-22.11727,6.31922L380.392,517.41541,356.16828,660.651l-23.17047,3.15961S322.83406,474.292,367.75351,439.47837Z" transform="translate(-236.3952 -210.82008)" fill="#2f2e41"/><path d="M470.35382,416.34308a10.52712,10.52712,0,0,0-.96265,1.3493L419.85612,420.094l-9.53834-29.11951L393.75593,398.846l15.58776,43.3713,61.26206-11.98076a10.4958,10.4958,0,1,0-.25193-13.89342Z" transform="translate(-236.3952 -210.82008)" fill="#a0616a"/><path d="M386.29308,379.345a16.32553,16.32553,0,0,1,17.23283-18.2017h0a16.35576,16.35576,0,0,1,15.308,16.29482V410.4402l-28.36912,4.365Z" transform="translate(-236.3952 -210.82008)" fill="#ccc"/><path d="M392.43111,340.20468c-3.68637-.01605-6.53017-3.89721-6.36493-7.57991s2.63866-6.92285,5.61865-9.09293,6.47479-3.49191,9.798-5.08739,6.61743-3.58561,8.66924-6.64822a14.7156,14.7156,0,0,0,1.02333-13.50438,21.66872,21.66872,0,0,0-9.33321-10.22418,28.68831,28.68831,0,0,0-20.41672-3.22806c-6.88849,1.51123-17.15443,5.69515-21.19035,11.47844l-4.20808,11.45787c-4.28786,5.15613-.968,12.81333,1.66783,18.97968s8.24814,10.80579,14.58112,13.0114a35.79392,35.79392,0,0,0,19.8411.59488" transform="translate(-236.3952 -210.82008)" fill="#2f2e41"/><path d="M369.98453,302.04436c-1.80894-2.89931-4.94439-4.74325-8.18587-5.82543a25.72431,25.72431,0,0,0-33.83244,23.00283c-.34357,6.31437,1.63365,12.48912,2.79545,18.70518s1.39291,13.08161-2.03446,18.396c-2.61053,4.0478-6.96387,6.59634-11.26083,8.77251-3.58128,1.81371-7.45507,3.51578-11.45314,3.1544s-8.01642-3.52812-7.91033-7.54108a32.05406,32.05406,0,0,0-2.68162,9.08033c-.28128,3.15593.49658,6.56125,2.776,8.76193,3.3131,3.19859,8.56255,2.9646,13.1157,2.27441,9.85694-1.49417,19.83818-4.29543,27.62552-10.52031s12.95465-16.47494,10.90388-26.23127c-.85666-4.07547-2.86993-7.796-4.49677-11.62968s-2.89692-8.027-2.14959-12.124a14.73513,14.73513,0,0,1,7.49255-9.98176,19.60142,19.60142,0,0,1,12.52266-1.899c2.79906.45932,6.29406,1.17251,7.95419-1.12742a4.50752,4.50752,0,0,0-.09367-4.80858,13.24764,13.24764,0,0,0-3.59258-3.5596" transform="translate(-236.3952 -210.82008)" fill="#2f2e41"/></svg>