<svg xmlns="http://www.w3.org/2000/svg" width="866.80518" height="325.71637" viewBox="0 0 866.80518 325.71637" xmlns:xlink="http://www.w3.org/1999/xlink"><polygon points="235.06938 78.21322 268.85303 63.99549 283.34349 93.70094 247.84185 108.19141 235.06938 78.21322" fill="#ffb6b6"/><polygon points="235.06938 78.21322 268.85303 63.99549 283.34349 93.70094 247.84185 108.19141 235.06938 78.21322" opacity=".1"/><path d="M239.8721,66.89358l33.32807,38.39973s-23.18474,73.17685-46.36949,79.69756-65.93162,38.39973-65.93162,38.39973l-53.61472-34.77712,26.08284-38.39973s63.03352-86.21827,79.69756-86.21827c16.66403,0,26.80736,2.89809,26.80736,2.89809Z" fill="#00bfa6"/><path d="M194.84296,317.21637H117.26104l-4.90504-6.55697-20.02583-26.7711-4.60796-6.15845s-17.38856-31.87902-13.76594-60.85995c3.62262-28.98093,41.29783-35.50164,41.29783-35.50164h1.55049l46.12313,40.52979-2.75318,37.71872,14.60637,24.27153,20.06205,33.32807Z" fill="#2f2e41"/><polygon points="133.14983 317.21637 112.35601 317.21637 112.35601 286.42413 133.14983 317.21637" fill="#2f2e41"/><polygon points="704.74455 101.83981 712.5 150.21637 663.5 150.84831 663.5 108.78901 704.74455 101.83981" fill="#a0616a"/><path d="M821.46138,270.47011l-2.58651,13.41818-6.41927,33.32807h-128.95789c1.00701-7.46988,2.38371-18.22178,3.85442-29.82865,.14496-1.15922,.29708-2.32569,.44195-3.49942,3.68789-29.17657,7.72344-62.19314,7.72344-62.19314l16.95386,2.05771,32.89328,3.98488,13.40368,1.62293,35.89291,4.35439c17.89569,2.16632,30.20533,19.04774,26.80011,36.75505Z" fill="#f2f2f2"/><path d="M764.14436,317.21637h-69.94541c1.06503-1.25341,1.66635-1.97793,1.66635-1.97793l20.96775-3.46324,43.20324-7.12937s1.97068,5.09342,4.10808,12.57055Z" fill="#2f2e41"/><path d="M667.92047,317.21637h-105.62827c1.05052-2.08663,2.13731-4.18051,3.2531-6.26714,1.49256-2.7894,3.08648-5.27446,4.77467-7.48429,1.12296-1.4708,2.28218-2.81841,3.47766-4.05015,3.51392-3.61536,7.33942-6.2453,11.36782-8.04935,14.38168-6.47003,31.32838-2.50691,45.76082,3.94136,5.41942,2.41988,10.48383,5.18752,14.92525,7.88282,7.8248,4.75283,13.72968,9.28835,16.24375,11.30255,.86939,.68826,1.3331,1.08678,1.3331,1.08678l4.4921,1.63743Z" fill="#2f2e41"/><polygon points="584.12209 317.21637 569.13891 317.21637 573.08752 312.63008 575.31911 310.03632 576.27553 310.81152 584.12209 317.21637" fill="#ffb6b6"/><path d="M769.25944,317.21637h-129.02298l5.61506-14.02676,7.7161-19.30131,3.87627-9.69412-3.20251-13.62824s-1.57941-1.11579-3.98488-3.12274c-8.57099-7.10036-27.64774-25.38732-23.26434-44.16691,4.98464-21.37344,11.24462-63.02627,12.57037-72.00321,.16671-1.12296,.25365-1.73153,.25365-1.73153l18.62021-4.56453,.61592-.15212,1.99969-.49271h49.87607l36.6827,24.84393-.00725,.26082-2.23884,68.30082-.95633,29.21999s-1.15197,4.21669-.87673,10.7664c.18113,4.4921,1.02894,10.07814,3.37639,16.16416,2.48507,6.46994,6.66558,13.49787,13.52679,20.35909,5.18036,5.18036,7.69443,9.542,8.82464,12.96898Z" fill="#00bfa6"/><path d="M758.76836,229.36067c-1.2244,10.04188-2.39813,17.17842-2.39813,17.17842l-12.83862,21.18505-9.79548,16.16416-16.9031,27.88689-2.4779,4.09357-1.76788,1.3476h-53.02781l2.53583-2.72421,25.25687-27.10444,3.26761-3.49942,5.29622-5.68758,16.55543-54.44785,19.51136-64.17107s7.90457-2.75314,15.62076-.14487c4.05731,1.36936,8.07111,4.22403,10.83159,9.75931,5.2818,10.56361,2.70971,40.77619,.33325,60.16444Z" fill="#00bfa6"/><path d="M665.48599,227.60738l-15.22949,29.83582-13.49778,26.4451-5.83245,11.41849-2.29668,4.50651-19.68533,17.40306h-44.57268l7.34668-9.12906,2.73147-3.40522,10.71573-13.31665,6.01349-7.47713,16.32344-20.30116,4.35386-92.46236c.72213-15.33578,12.40681-27.73295,27.61481-29.83638,.0325-.0045,.06301-.0096,.09149-.01532,4.9413-.9925,12.79519-1.28233,18.87387,4.59354,.21014,.19564,.41303,.40578,.61592,.62308,1.02151,1.07953,1.98519,2.34745,2.86908,3.83267,.08694,.14496,.17388,.29717,.25357,.44929,.25357,.46362,.49997,.97084,.72452,1.51423,7.7597,18.06966,2.58651,75.3215,2.58651,75.3215Z" fill="#00bfa6"/><circle cx="678.77617" cy="88.14428" r="35.2268" fill="#a0616a"/><path d="M693.38291,101.99387s-3.65152-10.06114-5.7222-15.28194c-2.07068-5.2208-.72048-11.99577-.72048-11.99577,0,0-27.6332-6.09946-38.45428-.05391-10.82108,6.04555-11.54897-24.36244-.56621-32.63841,0,0,2.94097,5.11141,1.79962,6.58093l-1.14136,1.46952s8.31092-17.57621,22.34501-18.45614c0,0,6.65176,5.30755,4.14485,7.05945-2.50691,1.75191,18.48278-9.90356,22.1343,.15758,0,0,13.38353,2.3844,10.77554,6.9556l.21974,3.15493s12.1299-1.25942,11.26538,7.33606c0,0-4.0804-.81319-6.69032,.92932s6.20819,10.005,6.20819,10.005c0,0,5.30005,34.43032-13.07972,44.34327,0,0,2.98122-15.66865-4.03438-13.10717-7.0156,2.56148-8.48368,3.54165-8.48368,3.54165Z" fill="#2f2e41"/><path d="M845.64111,325.71637H21.16406c-11.66992,0-21.16406-9.49414-21.16406-21.16406s9.49414-21.16406,21.16406-21.16406H845.64111c11.66992,0,21.16406,9.49414,21.16406,21.16406s-9.49414,21.16406-21.16406,21.16406Z" fill="#e6e6e6"/><path d="M817.52211,218.87821l-1.60291,74.80242c-.15517,7.24107-6.06962,13.03015-13.31236,13.03015h-137.60256c-7.07149,0-12.90955-5.52763-13.29556-12.58857l-4.08931-74.80242c-.41702-7.62814,5.65604-14.04226,13.29556-14.04226h143.29478c7.46556,0,13.4723,6.13683,13.31236,13.60068Z" fill="#3f3d56"/><circle cx="296.38476" cy="63.34798" r="32.92181" fill="#ffb6b6"/><polygon points="241.32114 149.48923 244.94376 188.61349 269.57755 287.87318 248.29566 295.33234 212.34021 187.16444 207.37409 143.69305 241.32114 149.48923" fill="#ffb6b6"/><path d="M231.52211,218.87821l-1.60291,74.80242c-.15517,7.24107-6.06962,13.03015-13.31236,13.03015H79.00427c-7.07149,0-12.90955-5.52763-13.29556-12.58857l-4.08931-74.80242c-.41702-7.62814,5.65604-14.04226,13.29556-14.04226H218.20974c7.46556,0,13.4723,6.13683,13.31236,13.60068Z" fill="#3f3d56"/><ellipse cx="273.5" cy="295.71637" rx="26" ry="11.5" fill="#ffb6b6"/><path d="M190.24225,155.47083l14.85273-79.15844s41.29783-5.79619,42.74687,7.96976-1.03544,81.04198-1.03544,81.04198l-56.56416-9.85329Z" fill="#00bfa6"/><path d="M283.09519,68.52443s20.36536-7.26838,28.95593-11.17911c8.59056-3.91073,25.65708,23.36637,26.03673,8.96042,.37965-14.40595-5.51755-20.44717-5.51755-20.44717,0,0-1.4726-31.51507-33.2233-27.57494,0,0,6.98375-15.76734-15.94076-18.20547-22.92451-2.43813-58.58934,52.92097-55.39531,61.19409,3.19403,8.27312,7.02295,15.11285-2.03888,23.95865-9.06183,8.8458-26.03033,58.76917-13.11998,72.20319,12.91035,13.43402,13.7575,19.26357,4.91188,27.62122-8.84562,8.35765-29.75425,26.53032-7.14719,29.68515,22.60706,3.15483-2.06828,.79851,14.7856-14.0263,16.85389-14.82481,41.44742-14.21933,32.26457-38.00455-9.18284-23.78522,6.77112-57.86925,4.77485-63.03995-1.99627-5.1707,4.4726-38.00496,4.4726-38.00496,0,0,15.05504-2.21189,16.1808,6.85974Z" fill="#2f2e41"/><g><path d="M553.90176,221.98203c-16.25607,58.47673-82.29613,94.06481-147.50707,79.48233-65.18425-14.57905-104.86613-73.80966-88.6024-132.28296,16.24853-58.48349,82.28859-94.07512,147.48038-79.49596,65.20711,14.57905,104.88505,73.81653,88.62898,132.29659h.00012Z" fill="#f7931a"/><path d="M489.50855,180.02538c2.4228-14.5245-9.90814-22.33255-26.76895-27.54134l5.46938-19.67532-13.35401-2.98472-5.32487,19.1568c-3.51064-.78459-7.11634-1.52474-10.69918-2.25811l5.36294-19.28307-13.34646-2.98472-5.47321,19.66845c-2.9059-.59357-5.75852-1.18027-8.52745-1.79768l.01521-.06142-18.41655-4.12409-3.55243,12.79167s9.90814,2.03638,9.69886,2.16265c5.40855,1.21098,6.38601,4.42077,6.22246,6.96547l-6.23012,22.41447c.37271,.08526,.85581,.20809,1.38824,.39912-.44503-.09889-.92046-.20809-1.4111-.31386l-8.73278,31.39925c-.66185,1.47362-2.33911,3.68396-6.11985,2.84492,.13314,.17395-9.70652-2.17286-9.70652-2.17286l-6.62953,13.70931,17.37816,3.88528c3.23299,.72661,6.40133,1.48726,9.52011,2.20357l-5.52648,19.90048,13.3388,2.98472,5.47321-19.68895c3.64377,.88692,7.18099,1.70556,10.64219,2.47651l-5.45417,19.59683,13.35401,2.98472,5.52648-19.8629c22.7715,3.86478,39.89488,2.30589,47.10245-16.16531,5.80796-14.8724-.28902-23.4514-12.27012-29.04568,8.72523-1.80445,15.29766-6.95183,17.05106-17.58428l.00023,.0001Zm-30.51162,38.37159c-4.12676,14.8724-32.0482,6.83243-41.10053,4.81645l7.33317-26.36451c9.05233,2.02618,38.08054,6.03763,33.76737,21.54795v.0001Zm4.13059-38.58655c-3.76542,13.52849-27.00482,6.65504-34.54332,4.96999l6.64845-23.91194c7.5385,1.68505,31.81617,4.83009,27.89487,18.94194Z" fill="#fff"/></g></svg>