<?xml version="1.0" encoding="UTF-8"?>
<!DOCTYPE svg PUBLIC "-//W3C//DTD SVG 1.1//EN" "http://www.w3.org/Graphics/SVG/1.1/DTD/svg11.dtd">
<!-- Creator: CorelDRAW X7 -->
<svg xmlns="http://www.w3.org/2000/svg" xml:space="preserve" width="46.6159mm" height="13.8987mm" version="1.1" style="shape-rendering:geometricPrecision; text-rendering:geometricPrecision; image-rendering:optimizeQuality; fill-rule:evenodd; clip-rule:evenodd"
viewBox="0 0 1073 320"
 xmlns:xlink="http://www.w3.org/1999/xlink">
 <defs>
  <style type="text/css">
   <![CDATA[
    .fil0 {fill:#009933}
   ]]>
  </style>
 </defs>
 <g id="Layer_x0020_1">
  <metadata id="CorelCorpID_0Corel-Layer"/>
  <path class="fil0" d="M164 196c-5,4 -13,9 -23,15 -3,18 -9,33 -19,44 -10,10 -21,15 -33,15 -6,0 -11,-1 -14,-4 -3,-3 -5,-6 -5,-11 0,-14 13,-26 39,-39 3,-10 5,-18 8,-26 -5,7 -11,12 -20,17 -8,5 -16,8 -24,8 -7,0 -14,-2 -20,-6 -22,13 -35,29 -38,44 -2,8 -2,15 1,21 2,6 7,12 13,16 16,12 45,15 84,2 142,-49 235,-31 324,-13 93,18 197,24 288,-13l28 -33 34 -26c3,-7 9,-12 18,-15 -6,-1 -12,-3 -20,-6l22 -79 40 -54 93 16 11 15 111 -84c7,3 11,9 11,17 0,1 0,3 0,5l-109 81 10 16c13,23 23,38 27,43 4,4 12,9 22,13 1,8 1,14 1,18 0,32 -6,59 -19,81l-32 -15c-9,6 -20,11 -34,15 -14,-2 -30,-7 -47,-13 -6,9 -13,13 -20,13 -6,0 -12,-2 -17,-7 -5,5 -10,7 -15,7 -6,0 -11,-2 -15,-6 -4,-4 -8,-10 -11,-18 -12,-2 -20,-7 -25,-16l-26 20 -33 15c-66,40 -211,39 -295,23 -87,-17 -179,-35 -318,13 -43,15 -76,11 -95,-3 -9,-6 -15,-14 -18,-23 -3,-9 -4,-19 -2,-29 4,-17 18,-36 41,-51 -8,-10 -12,-23 -12,-39 0,-17 5,-33 14,-48 9,-15 21,-27 35,-36 15,-9 29,-14 43,-14 12,0 22,4 30,11 8,7 11,16 11,27 0,12 -4,23 -13,32 -8,9 -18,14 -29,14 -7,0 -12,-2 -17,-5 -4,-3 -6,-7 -6,-12 0,-3 1,-5 2,-8 2,-2 4,-3 6,-3 2,0 3,1 3,4 0,2 1,4 3,5 2,1 3,2 6,2 5,0 11,-4 16,-12 5,-8 8,-16 8,-25 0,-7 -2,-12 -6,-16 -4,-4 -10,-6 -16,-6 -10,0 -19,4 -28,13 -9,9 -16,20 -22,34 -6,14 -9,27 -9,40 0,11 3,21 8,28 5,6 11,10 20,10 14,0 27,-10 40,-30l20 -3c3,0 4,0 4,2 0,1 -1,4 -3,9 -2,6 -5,15 -8,27 8,-4 14,-9 19,-14 0,-1 0,-1 0,-2 0,-16 6,-29 16,-42 11,-12 22,-18 35,-18 7,0 12,2 16,5 4,4 6,8 6,14 0,14 -16,26 -47,36 3,14 10,21 22,21 5,0 10,-1 14,-4 3,-2 7,-5 13,-11 0,0 0,-1 0,-1 0,-16 5,-29 16,-42 10,-12 22,-18 34,-18 7,0 12,2 16,5 4,4 6,8 6,14 0,14 -15,26 -47,36 3,14 11,21 23,21 4,0 9,-1 13,-4 3,-2 8,-5 13,-10 1,-18 4,-34 8,-50 6,-20 16,-40 29,-61 10,-4 19,-7 26,-10 8,-2 12,-3 13,-3 1,0 3,2 5,5 1,4 2,7 2,11 0,6 -2,13 -6,21 -4,7 -11,17 -20,27 6,-2 11,-2 15,-2 7,0 12,1 17,5 4,3 6,7 6,13 0,12 -11,20 -32,26 8,2 13,7 13,15l-1 9c0,5 2,7 6,7 3,0 6,-1 10,-4 3,-3 8,-8 15,-16l0 12c-16,18 -30,27 -40,27 -6,0 -10,-2 -13,-6 -4,-3 -6,-8 -6,-13 0,-3 1,-6 2,-11 1,-5 1,-8 1,-9 0,-3 -2,-5 -6,-5 -3,0 -5,-2 -5,-4 0,-3 0,-4 1,-5 1,-1 3,-2 6,-2 8,0 14,-2 18,-5 4,-3 6,-6 6,-11 0,-3 -1,-5 -4,-7 -2,-2 -4,-3 -8,-3 -1,0 -3,0 -5,1 -2,0 -3,1 -5,2 -1,1 -3,2 -5,3 -2,2 -3,4 -5,6 -2,2 -4,4 -6,7 -2,2 -3,9 -5,21 -1,7 -1,13 -1,19 -1,5 -1,11 -1,17l-24 4c-1,-5 -1,-11 -1,-19 -7,6 -13,10 -18,13 -7,4 -15,7 -24,7 -9,0 -17,-3 -23,-10 -4,-3 -6,-7 -8,-12 -7,7 -13,12 -19,15 -7,4 -15,7 -24,7 -10,0 -18,-3 -24,-10 -3,-3 -5,-7 -7,-12zm837 62c8,-21 12,-43 12,-65l0 -9c-14,-7 -28,-22 -40,-45 -4,-6 -6,-10 -7,-12l-11 -17 -46 35 -1 21 0 21c-21,4 -42,10 -62,19 -7,-2 -14,-2 -20,-2 -19,0 -29,5 -29,17 0,12 9,18 27,18 6,0 14,-1 24,-4 44,14 74,22 91,25 5,-2 8,-3 10,-4 11,-5 19,-8 24,-10l28 12zm-59 -168l-7 -10 -84 -13 -34 46 -18 65c3,1 5,1 6,1 13,0 23,-15 30,-44l7 -6c9,-7 17,-16 26,-26 8,7 18,14 30,21l44 -34zm-54 42c-3,-2 -4,-3 -6,-3 -5,-3 -9,-6 -12,-9 -7,8 -15,16 -26,24 -3,10 -7,20 -12,29l56 -41zm10 21l-53 40c23,-9 41,-14 53,-17l0 -17 0 -6zm-44 96l-6 -2c-10,3 -18,4 -23,4 3,4 5,6 7,8 3,2 5,2 7,2 6,0 11,-4 15,-12zm27 9l-20 -7c1,7 4,11 10,11 4,0 7,-1 10,-4zm-133 -52c-16,17 -30,26 -40,26 -6,0 -10,-2 -13,-5 -4,-4 -6,-8 -6,-14 0,-2 1,-6 2,-11 1,-5 1,-8 1,-8 0,-4 -2,-5 -6,-5 -3,0 -5,-2 -5,-5 0,-2 0,-4 1,-5 1,-1 3,-1 6,-1 8,-1 14,-2 18,-5 4,-3 6,-7 6,-11 0,-3 -1,-5 -4,-7 -2,-2 -4,-3 -8,-3 -1,0 -3,0 -5,0 -2,1 -3,1 -5,2 -1,1 -3,2 -5,4 -2,1 -3,3 -5,5 -2,2 -4,5 -6,8 -2,1 -3,8 -5,21 -1,7 -1,13 -1,18 -1,5 -1,11 -1,18l-24 4c-1,-5 -1,-10 -1,-17 -13,12 -24,17 -33,17 -5,0 -9,-1 -12,-5 -3,-3 -4,-8 -4,-13 0,-8 3,-20 9,-36 4,-8 5,-14 5,-16 0,-2 -1,-3 -3,-3 0,0 -2,0 -3,1 -2,1 -4,2 -6,4 -2,2 -4,4 -6,6 -2,2 -4,5 -6,7l-6 7c-3,3 -4,7 -5,10 -1,7 -2,12 -2,17 0,4 0,9 0,16l-24 5c-1,-9 -1,-17 -1,-21 0,-12 1,-23 4,-33 2,-10 7,-22 13,-35l26 -5c-6,15 -9,26 -11,35 12,-13 21,-22 28,-27 7,-5 13,-8 18,-8 4,0 7,2 10,4 2,3 3,6 3,11 0,6 -3,18 -9,34 -4,11 -6,18 -6,21 0,4 1,6 5,6 3,0 9,-3 16,-10 0,-19 3,-37 8,-54 6,-19 16,-40 29,-60 10,-4 19,-8 26,-10 8,-2 12,-3 13,-3 1,0 3,1 5,5 1,3 2,7 2,11 0,6 -2,13 -6,20 -4,8 -11,17 -20,28 6,-2 11,-3 15,-3 7,0 12,2 17,5 4,4 6,8 6,13 0,12 -11,21 -32,27 8,1 13,6 13,14l-1 10c0,4 2,7 6,7 3,0 6,-2 10,-5 3,-2 8,-8 15,-16l0 13zm-70 -52l7 -8c21,-24 31,-40 31,-50 0,-4 -2,-7 -6,-7 -4,0 -9,6 -15,16 -6,10 -11,27 -17,49zm-135 -59c-7,3 -14,4 -19,4 -4,0 -8,-1 -12,-3 -5,-1 -8,-2 -10,-2 -6,0 -11,2 -15,6 -4,4 -6,9 -6,14 0,5 3,9 7,12 2,2 4,3 4,5 0,2 -2,4 -5,8 -2,3 -5,4 -7,4 -3,0 -6,-2 -8,-6 -3,-3 -4,-8 -4,-13 0,-10 5,-21 16,-32 10,-10 20,-15 31,-15 3,0 7,0 12,2 5,2 9,3 13,3 3,0 7,-1 11,-4 1,-1 2,-1 3,-1 1,0 3,0 5,1 1,1 2,3 2,4 0,1 -2,3 -5,7 -6,7 -10,13 -12,21 -2,7 -5,19 -7,34 -2,16 -5,28 -8,38 -2,10 -7,19 -12,27 -6,7 -13,13 -21,17 -8,4 -16,6 -25,6 -11,0 -20,-2 -27,-7 -6,-5 -10,-10 -10,-15 0,-2 3,-6 8,-10 5,-5 8,-7 10,-7 2,0 3,1 4,2 0,2 1,4 1,8 0,6 1,11 4,15 3,4 6,6 11,6 7,0 13,-4 17,-11 5,-7 9,-20 12,-39 3,-19 7,-34 12,-44 5,-10 15,-22 30,-35zm-196 44l7 -8c21,-23 31,-40 31,-50 0,-4 -2,-6 -6,-6 -4,0 -9,5 -15,15 -6,11 -11,27 -17,49zm-85 32c18,-5 27,-14 27,-28 0,-7 -3,-10 -8,-10 -4,0 -9,3 -13,11 -4,7 -6,16 -6,27zm-75 0c18,-5 27,-14 27,-28 0,-7 -2,-10 -7,-10 -5,0 -9,3 -13,11 -5,7 -7,16 -7,27zm-81 56c-18,9 -27,18 -27,27 0,5 2,8 6,8 9,0 16,-12 21,-35z"/>
 </g>
</svg>
